name rise44.9368peak50.754fall52.0217.mot
datacolumns 19
datarows 14
range 20.97492500000000 20.99659200000000
endheader
time	ground_force1_vx	ground_force1_vy	ground_force1_vz	ground_force1_px	ground_force1_py	ground_force1_pz	ground_force2_vx	ground_force2_vy	ground_force2_vz	ground_force2_px	ground_force2_py	ground_force2_pz	ground_torque1_x	ground_torque1_y	ground_torque1_z	ground_torque2_x	ground_torque2_y	ground_torque2_z	
20.97492500000000	-45.69472700000000	801.79496099999994	67.84367899999999	0.17902700000000	0.00000000000000	0.14386600000000	-2.92090700000000	21.65436600000000	3.37483100000000	0.00000000000000	0.00000000000000	0.00000000000000	0.00000000000000	37.71977900000000	0.00000000000000	0.00000000000000	1.36448100000000	0.00000000000000	
20.97658700000000	-46.06729800000000	800.80276900000001	67.88301000000000	0.17843100000000	0.00000000000000	0.14375900000000	-3.52432000000000	27.65202200000000	4.14931400000000	0.40811200000000	0.00000000000000	-0.08842900000000	0.00000000000000	37.69255300000000	0.00000000000000	0.00000000000000	3.06993600000000	0.00000000000000	
20.97825800000000	-46.44849000000000	799.69717500000002	67.90102700000000	0.17782400000000	0.00000000000000	0.14365000000000	-4.10699500000000	34.04484900000000	4.92776300000000	0.41516000000000	0.00000000000000	-0.08900200000000	0.00000000000000	37.65919100000000	0.00000000000000	0.00000000000000	3.69756900000000	0.00000000000000	
20.97992700000000	-46.83879900000000	798.47584900000004	67.89694100000000	0.17720700000000	0.00000000000000	0.14353800000000	-4.64519300000000	40.70727900000000	5.68534400000000	0.42110700000000	0.00000000000000	-0.08955700000000	0.00000000000000	37.61967500000000	0.00000000000000	0.00000000000000	4.32015000000000	0.00000000000000	
20.98159000000000	-47.23867600000000	797.13647200000003	67.86999200000000	0.17657700000000	0.00000000000000	0.14342400000000	-5.11731000000000	47.51646800000000	6.39902100000000	0.42614100000000	0.00000000000000	-0.09009600000000	0.00000000000000	37.57399500000000	0.00000000000000	0.00000000000000	4.91916900000000	0.00000000000000	
20.98326000000000	-47.64852700000000	795.67673200000002	67.81944600000000	0.17593600000000	0.00000000000000	0.14330700000000	-5.50523200000000	54.36160400000000	7.04908800000000	0.43041700000000	0.00000000000000	-0.09061900000000	0.00000000000000	37.52214600000000	0.00000000000000	0.00000000000000	5.47853500000000	0.00000000000000	
20.98492300000000	-48.06870500000000	794.09432800000002	67.74460100000000	0.17528100000000	0.00000000000000	0.14318700000000	-5.79525800000000	61.15111000000000	7.62024300000000	0.43405600000000	0.00000000000000	-0.09112800000000	0.00000000000000	37.46412900000000	0.00000000000000	0.00000000000000	5.98549600000000	0.00000000000000	
20.98658700000000	-48.49951200000000	792.38696700000003	67.64478900000000	0.17461400000000	0.00000000000000	0.14306400000000	-5.97853900000000	67.81723300000000	8.10216300000000	0.43715800000000	0.00000000000000	-0.09162500000000	0.00000000000000	37.39994900000000	0.00000000000000	0.00000000000000	6.43115100000000	0.00000000000000	
20.98825600000000	-48.94118900000000	790.55236800000000	67.51937800000000	0.17393300000000	0.00000000000000	0.14293800000000	-6.05105400000000	74.31796000000000	8.48957300000000	0.43980500000000	0.00000000000000	-0.09210900000000	0.00000000000000	37.32961800000000	0.00000000000000	0.00000000000000	6.81056900000000	0.00000000000000	
20.98992100000000	-49.39391900000000	788.58826399999998	67.36777800000000	0.17323900000000	0.00000000000000	0.14280900000000	-6.01320000000000	80.63649300000000	8.78190200000000	0.44206700000000	0.00000000000000	-0.09258100000000	0.00000000000000	37.25315000000000	0.00000000000000	0.00000000000000	7.12255800000000	0.00000000000000	
20.99158700000000	-49.85782200000000	786.49240099999997	67.18943600000000	0.17253100000000	0.00000000000000	0.14267700000000	-5.86909300000000	86.77874100000000	8.98260000000000	0.44399900000000	0.00000000000000	-0.09304200000000	0.00000000000000	37.17056700000000	0.00000000000000	0.00000000000000	7.36916400000000	0.00000000000000	
20.99325600000000	-50.33295000000000	784.26254200000005	66.98384700000000	0.17180900000000	0.00000000000000	0.14254300000000	-5.62568100000000	92.76936300000000	9.09824700000000	0.44565000000000	0.00000000000000	-0.09349200000000	0.00000000000000	37.08189200000000	0.00000000000000	0.00000000000000	7.55498800000000	0.00000000000000	
20.99492500000000	-50.81928900000000	781.89647300000001	66.75055200000000	0.17107300000000	0.00000000000000	0.14240500000000	-5.29178500000000	98.64696000000001	9.13755900000000	0.44706100000000	0.00000000000000	-0.09393200000000	0.00000000000000	36.98715400000000	0.00000000000000	0.00000000000000	7.68642000000000	0.00000000000000	
20.99659200000000	-51.31675400000000	779.39199799999994	66.48913899999999	0.17032300000000	0.00000000000000	0.14226400000000	-4.87715300000000	104.45894900000000	9.11039100000000	0.44826500000000	0.00000000000000	-0.09436200000000	0.00000000000000	36.88638500000000	0.00000000000000	0.00000000000000	7.77085200000000	0.00000000000000	
